<svg xmlns="http://www.w3.org/2000/svg" viewBox="0 0 16 16" fill="none" shape-rendering="crispEdges"><metadata xmlns:rdf="http://www.w3.org/1999/02/22-rdf-syntax-ns#" xmlns:xsi="http://www.w3.org/2001/XMLSchema-instance" xmlns:dc="http://purl.org/dc/elements/1.1/" xmlns:dcterms="http://purl.org/dc/terms/"><rdf:RDF><rdf:Description><dc:title>Pixel Art</dc:title><dc:creator>DiceBear</dc:creator><dc:source xsi:type="dcterms:URI">https://www.figma.com/community/file/1198754108850888330</dc:source><dcterms:license xsi:type="dcterms:URI">https://creativecommons.org/publicdomain/zero/1.0/</dcterms:license><dc:rights>„Pixel Art” (https://www.figma.com/community/file/1198754108850888330) by „DiceBear”, licensed under „CC0 1.0” (https://creativecommons.org/publicdomain/zero/1.0/)</dc:rights></rdf:Description></rdf:RDF></metadata><mask id="viewboxMask"><rect width="16" height="16" rx="0" ry="0" x="0" y="0" fill="#fff" /></mask><g mask="url(#viewboxMask)"><path d="M4 2h8v1h1v3h1v2h-1v3h-1v1H9v1h4v1h1v2H2v-2h1v-1h4v-1H4v-1H3V8H2V6h1V3h1V2Z" fill="#f4c7a1"/><path d="M4 2h8v1h1v3h1v2h-1v3h-1v1H4v-1H3V8H2V6h1V3h1V2Z" fill="#fff" fill-opacity=".1"/><path d="M10 13h3v1h1v2H2v-2h1v-1h3v2h4v-2Z" fill="#ef4444"/><path fill="#fff" d="M4 5h3v2H4zM9 5h3v2H9z"/><path fill="#5b7c8b" d="M11 6h1v1h-1zM6 6h1v1H6z"/><path d="M10 11v-1H7V9H6v1h1v1h3Z" fill="#de0f0d"/><path d="M4 2h8v1h1v2h-2V4H5v1H3V3h1V2Z" fill="#7c4a21"/><path d="M4 0h8v1h1v1h1v3H2V2h1V1h1V0Z" fill="#3d8a6b"/><path fill="#fff" fill-opacity=".3" d="M11 2h1v3h-1zM9 2h1v3H9z"/></g></svg>
