<svg xmlns="http://www.w3.org/2000/svg" viewBox="0 0 16 16" fill="none" shape-rendering="crispEdges" aria-hidden="true"><!-- Generated by DiceBear (https://www.dicebear.com) --><metadata xmlns:rdf="http://www.w3.org/1999/02/22-rdf-syntax-ns#" xmlns:xsi="http://www.w3.org/2001/XMLSchema-instance" xmlns:dc="http://purl.org/dc/elements/1.1/" xmlns:dcterms="http://purl.org/dc/terms/"><rdf:RDF><rdf:Description><dc:title>Pixel Art</dc:title><dc:creator>DiceBear</dc:creator><dc:source xsi:type="dcterms:URI">https://www.figma.com/community/file/1198754108850888330</dc:source><dcterms:license xsi:type="dcterms:URI">https://creativecommons.org/publicdomain/zero/1.0/</dcterms:license><dc:rights>“Pixel Art” (https://www.figma.com/community/file/1198754108850888330) by “DiceBear”, licensed under “CC0 1.0” (https://creativecommons.org/publicdomain/zero/1.0/)</dc:rights></rdf:Description></rdf:RDF></metadata><defs><g id="clothes-variant08-1bd33700"><path d="M8 1h3v1h1v2H0V2h1V1h3v2h4z" fill="#cbd5e1"/></g><g id="eyes-variant02-1bd33700"><path fill-rule="evenodd" clip-rule="evenodd" d="M7 0H6v2h2V1H7zM2 0H1v2h2V1H2z" fill="white"/><path fill-rule="evenodd" clip-rule="evenodd" d="M6 0v1h1v1H5V0zM1 0v1h1v1H0V0z" fill="#588387"/><path fill-rule="evenodd" clip-rule="evenodd" d="M6 0v1H5V0zm1 1v1H6V1zM1 0v1H0V0zm1 1v1H1V1z" fill="white" fill-opacity=".5"/></g><g id="glasses-dark04-1bd33700"><path fill="black" fill-opacity=".3" d="M2 1h3v3H2zm5 0h3v3H7z"/><path fill="#323232" d="M1 1h1v1H1zm4 0h2v1H5zm5 0h1v1h-1z"/></g><g id="mouth-happy04-1bd33700"><path d="M3 0v1H2v1h2V0z" fill="#c98276"/></g><g id="hair-short03-1bd33700"><path transform="matrix(-1 0 0 1 12 2)" fill="#0f766e" d="M0 0h8v1H0z"/><path transform="matrix(-1 0 0 1 13 3)" fill="#0f766e" d="M0 0h1v1H0z"/><path transform="matrix(-1 0 0 1 6 3)" fill="#0f766e" d="M0 0h3v1H0z"/><path transform="matrix(-1 0 0 1 5 4)" fill="#0f766e" d="M0 0h2v1H0z"/></g><clipPath id="clip-1bd33700"><rect width="16" height="16" rx="0" ry="0"/></clipPath></defs><g clip-path="url(#clip-1bd33700)"><path d="M4 2h8v1h1v3h1v2h-1v3h-1v1H9v1h4v1h1v2H2v-2h1v-1h4v-1H4v-1H3V8H2V6h1V3h1z" fill="#ffd9b8"/><path d="M4 2h8v1h1v3h1v2h-1v3h-1v1H4v-1H3V8H2V6h1V3h1z" fill="white" fill-opacity=".1"/><use transform="translate(2 12)" href="#clothes-variant08-1bd33700"/><use transform="translate(4 5)" href="#eyes-variant02-1bd33700"/><use transform="translate(2 4)" href="#glasses-dark04-1bd33700"/><use transform="translate(6 9)" href="#mouth-happy04-1bd33700"/><use href="#hair-short03-1bd33700"/></g></svg>
