<svg xmlns="http://www.w3.org/2000/svg" viewBox="0 0 16 16" fill="none" shape-rendering="crispEdges" aria-hidden="true"><!-- Generated by DiceBear (https://www.dicebear.com) --><metadata xmlns:rdf="http://www.w3.org/1999/02/22-rdf-syntax-ns#" xmlns:xsi="http://www.w3.org/2001/XMLSchema-instance" xmlns:dc="http://purl.org/dc/elements/1.1/" xmlns:dcterms="http://purl.org/dc/terms/"><rdf:RDF><rdf:Description><dc:title>Pixel Art</dc:title><dc:creator>DiceBear</dc:creator><dc:source xsi:type="dcterms:URI">https://www.figma.com/community/file/1198754108850888330</dc:source><dcterms:license xsi:type="dcterms:URI">https://creativecommons.org/publicdomain/zero/1.0/</dcterms:license><dc:rights>“Pixel Art” (https://www.figma.com/community/file/1198754108850888330) by “DiceBear”, licensed under “CC0 1.0” (https://creativecommons.org/publicdomain/zero/1.0/)</dc:rights></rdf:Description></rdf:RDF></metadata><defs><g id="clothes-variant21-1bd33700"><path d="M3 1H2v3h3V3H4V2H3zm7 0H9v1H8v1H7v1h3z" fill="#7c3aed"/><path fill="white" fill-opacity=".5" d="M2 1h1v1H2zm1 1h1v1H3zm1 1h1v1H4zm3 0h1v1H7zm1-1h1v1H8z"/><path fill="white" fill-opacity=".3" d="M9 2h1v1H9z"/><path fill="white" fill-opacity=".5" d="M9 1h1v1H9z"/><path fill="white" fill-opacity=".3" d="M8 3h1v1H8zM3 3h1v1H3zM2 2h1v1H2z"/></g><g id="eyes-variant04-1bd33700"><path d="M2 0H1v2h2V1H2zm5 0H6v2h2V1H7z" fill="white"/><path fill="#588387" d="M1 1h1v1H1zm5 0h1v1H6z"/></g><g id="beard-variant02-1bd33700"><mask id="beardVariant02-a" style="mask-type:luminance"><path opacity=".9" d="M6 8H4V7H3V6H2V5h6v1H7v1H6z" fill="#4a3b31"/></mask><g mask="url(#beardVariant02-a)"><path fill="#4a3b31" d="M-3-6h16v16H-3z"/><path fill="white" fill-opacity=".3" d="M-3-6h16v16H-3z"/></g></g><g id="mouth-happy02-1bd33700"><path d="M2 1v1h1V1z" fill="#c98276"/></g><g id="hair-long10-1bd33700"><path d="M4 1v1H3v1H2v1H1v6h2V8H2V6h1V4h1V3h2v1h1V3h1V2H7V1z" fill="#4a3b31"/></g><g id="hat-variant02-1bd33700"><path d="M11 1H3v1H2v2h12V3h-2V2h-1z" fill="#cc6192"/><path fill="white" fill-opacity=".3" d="M10 4H9V1h1z"/></g><clipPath id="clip-1bd33700"><rect width="16" height="16" rx="0" ry="0"/></clipPath></defs><g clip-path="url(#clip-1bd33700)"><path d="M4 2h8v1h1v3h1v2h-1v3h-1v1H9v1h4v1h1v2H2v-2h1v-1h4v-1H4v-1H3V8H2V6h1V3h1z" fill="#b97a4f"/><path d="M4 2h8v1h1v3h1v2h-1v3h-1v1H4v-1H3V8H2V6h1V3h1z" fill="white" fill-opacity=".1"/><use transform="translate(2 12)" href="#clothes-variant21-1bd33700"/><use transform="translate(4 5)" href="#eyes-variant04-1bd33700"/><use transform="translate(3 6)" href="#beard-variant02-1bd33700"/><use transform="translate(6 9)" href="#mouth-happy02-1bd33700"/><use href="#hair-long10-1bd33700"/><use transform="translate(1)" href="#hat-variant02-1bd33700"/></g></svg>
